<svg id="Capa_1" enable-background="new 0 0 512 512" height="512" viewBox="0 0 512 512" width="512" xmlns="http://www.w3.org/2000/svg"><g><path d="m61 406v30c0 8.284 6.716 15 15 15h360c8.284 0 15-6.716 15-15v-30c0-54.092 13.618-74.819 28.036-96.763 15.451-23.517 32.964-50.172 32.964-113.237 0-74.439-61.009-135-136-135h-240c-74.991 0-136 60.561-136 135 0 63.065 17.513 89.72 32.964 113.237 14.418 21.944 28.036 42.671 28.036 96.763zm421-210c0 54.092-13.618 74.819-28.036 96.763-15.451 23.517-32.964 50.172-32.964 113.237v15h-150v-55.294c0-23.324 7.56-45.483 21.51-63.692 22.99 18.144 51.997 28.986 83.49 28.986 8.284 0 15-6.716 15-15s-6.716-15-15-15c-57.897 0-105-47.103-105-105s47.103-105 105-105c58.449 0 106 47.103 106 105zm-226 107.735c-4.187-8.085-9.212-15.769-15.037-22.942 5.753-7.107 10.803-14.805 15.037-22.992 4.234 8.187 9.284 15.884 15.037 22.992-5.825 7.173-10.85 14.857-15.037 22.942zm35.252-212.735c-14.537 11.756-26.596 26.459-35.252 43.198-8.656-16.739-20.715-31.442-35.252-43.198zm-155.252 0c57.897 0 105 47.103 105 105s-47.103 105-105 105c-8.284 0-15 6.716-15 15s6.716 15 15 15c31.493 0 60.5-10.842 83.49-28.986 13.95 18.209 21.51 40.368 21.51 63.692v55.294h-150v-15c0-63.065-17.513-89.72-32.964-113.237-14.418-21.944-28.036-42.671-28.036-96.763 0-57.897 47.551-105 106-105z"/></g></svg>